<?xml version="1.0" encoding="utf-8"?>
<!-- Generator: Adobe Illustrator 25.4.1, SVG Export Plug-In . SVG Version: 6.00 Build 0)  -->
<svg version="1.2" baseProfile="tiny" id="Calque_1"
	 xmlns="http://www.w3.org/2000/svg" xmlns:xlink="http://www.w3.org/1999/xlink" x="0px" y="0px" viewBox="0 0 969.75 274.17"
	 overflow="visible" xml:space="preserve">
<g>
	<path fill="#1E918A" d="M481.46,111.44c-6.94,11.98-13.66,23.56-20.37,35.15c-6.38,11.01-12.61,22.12-19.2,33.01
		c-6.32,10.45-7.91,21.73-6.93,33.62c0.41,5.01,1.34,9.9,3.21,14.56c3.21,8.04,8.65,13.91,16.89,16.98
		c0.93,0.35,1.89,0.64,2.81,1.02c3.01,1.27,4.38,4.17,3.39,7.11c-0.97,2.88-3.97,4.54-7.02,3.64c-10.71-3.17-18.98-9.5-24.29-19.4
		c-5.86-10.92-6.98-22.76-6.52-34.9c0.41-10.94,4.13-20.72,9.62-30.07c13.52-23.03,26.82-46.19,40.2-69.29
		c4.34-7.49,11.9-7.59,16.25-0.15c15.06,25.69,29.77,51.57,41.39,79.06c3.79,8.97,7.48,18.02,8.85,27.72
		c2.56,18.12-3.23,33.17-17.56,44.67c-11.89,9.54-25.76,14.68-40.58,17.53c-6.08,1.17-12.22,1.5-18.39,1.5
		c-28.24,0.01-56.48,0.03-84.72-0.01c-13.06-0.02-22.89-7.84-25.49-20.24c-0.37-1.77-0.41-3.64-0.41-5.46
		c-0.02-45.9,0-91.81-0.04-137.71c-0.01-8.41,3.24-15.14,9.71-20.42c34.4-28.06,68.77-56.14,103.18-84.18
		c8.22-6.69,21.27-6.94,29.8-0.49c37.31,28.24,74.58,56.54,111.84,84.85c6.72,5.11,10.1,11.97,10.1,20.47
		c-0.01,46.07,0.01,92.14-0.02,138.21c-0.01,11.65-7.73,21.5-18.98,24.19c-2.24,0.54-4.61,0.74-6.93,0.75
		c-11.33,0.07-22.66,0.03-33.99,0.03c-2.41,0-4.65-0.37-6.1-2.63c-2.16-3.36-0.55-7.45,3.32-8.48c1.15-0.31,2.3-0.33,3.46-0.33
		c11.08,0,22.17-0.25,33.24,0.08c8.82,0.26,14.73-7.19,14.69-14.73c-0.24-45.24-0.17-90.48-0.06-135.71
		c0.01-5.96-2.18-10.25-6.89-13.81c-36.4-27.51-72.73-55.12-109.08-82.7c-6.32-4.8-12.54-4.69-18.66,0.3
		c-33.49,27.33-66.94,54.69-100.5,81.93c-4.72,3.83-6.89,8.31-6.88,14.41c0.11,45.32,0.06,90.64,0.06,135.96
		c0,8.35,5.71,14.25,14.03,14.26c30.32,0.02,60.65,0.38,90.97-0.2c16.62-0.32,32.1-5.55,45.49-15.76
		c9.88-7.53,14.92-17.45,14.5-30.21c-0.24-7.44-2.49-14.22-5.04-20.96c-8.94-23.56-21.06-45.56-33.3-67.49
		C487.63,121.99,484.62,116.91,481.46,111.44z"/>
</g>
<g>
	<path fill="#27928B" d="M781.92,170.4c2.31,8.51,0.92,14.36-7.12,17.84c-4.32,1.87-8.15,4.89-12.84,7.78
		c6.18,3.36,11.98,6.33,16.36,11.17c6.41,7.1,10.96,15.14,11.23,24.96c0.1,3.5,1.45,4.88,4.87,4.84c7.06-0.09,14.12-0.06,21.18,0.01
		c3.19,0.03,4.49-1.47,4.45-4.57c-0.07-5.24,0.35-10.5-0.09-15.7c-0.51-5.92,3.18-5.17,6.93-5.4c4.34-0.27,6.27,1.02,5.91,5.68
		c-0.36,4.75-0.1,9.56-0.07,14.34c0.01,1.36-0.37,3.51,0.31,3.96c5.53,3.66,11.77,1.18,17.69,1.55c3.97,0.25,3.79-3.11,3.81-5.86
		c0.04-7.06,0.27-14.13-0.06-21.17c-0.3-6.36,4.12-4.57,7.38-4.69c3.28-0.12,6.98-1.11,6.61,4.73c-0.47,7.48,0.05,15.02-0.18,22.53
		c-0.11,3.63,1.21,4.73,4.72,4.66c20.49-0.4,16.67,2.67,17.05-16.04c0.12-5.92,0.11-11.84,0.01-17.76
		c-0.11-6.09,4.46-3.77,7.32-3.97c2.89-0.2,6.67-1.31,6.55,4.11c-0.2,9.56,0.02,19.12-0.09,28.68c-0.04,3.22,0.53,4.67,4.43,4.88
		c18.37,1,18.37,1.17,18.37-17.33c0-14.12,0.27-28.24-0.13-42.34c-0.16-5.81,3.01-5.51,6.85-5.35c3.5,0.15,7.19-1.03,7.09,5.09
		c-0.34,19.35-0.01,38.7-0.17,58.05c-0.08,9.56-4.32,13.53-13.94,13.68c-5.92,0.09-12.71,1.87-17.56-0.42
		c-7.15-3.37-12.91,0.52-19.26,0.45c-5.24-0.06-10.94,1.34-15.62-0.28c-10.96-3.8-21.41,2.35-32.1,0.32
		c-3.81-0.72-8.32,1.5-11.2-2.91c-0.65-1-1.49-0.4-2.3,0.02c-11.46,5.84-24.13,3.89-35.41,1.98c-6.94-1.18-12.38,1.35-18.58,1.07
		c-14.09-0.64-28.23-0.11-42.35-0.27c-3.52-0.04-4.88,0.8-5.7,4.62c-2.98,13.87-17.09,22.85-31.06,20.45
		c-3.93-0.68-5.66-3.71-6.84-6.83c-0.95-2.52-0.58-5.02,3.39-4.66c3.16,0.29,6.33,0.32,9.48-0.58c7.77-2.21,11.6-6.68,11.79-15.43
		c0.31-13.65,0.43-27.32,0.07-40.97c-0.15-5.52,2.07-6.35,6.8-6.26c4.66,0.08,7.69,0.27,7.29,6.41c-0.56,8.61,0,17.3-0.2,25.94
		c-0.09,3.93,0.81,5.65,5.28,5.56c12.74-0.27,25.5-0.18,38.25,0.11c5.53,0.12,6.14-2.62,4.92-6.82
		c-3.79-13.05-12.77-20.54-25.73-23.65c-2.08-0.5-5.29,0.18-5.25-3.02c0.06-4.11-2.38-9.6,1.55-12.13
		C757.59,183.99,769.75,177.45,781.92,170.4z"/>
	<path fill="#1F928B" d="M801.34,67.49c-13.99-10.55-27.96-21.11-41.87-31.76c-5.32-4.07-10.25-3.91-15.41,0.35
		c-12.81,10.57-25.72,21.03-38.62,31.49c-3.41,2.76-5.04,6.08-5,10.6c0.16,17.29,0.03,34.59,0.08,51.89
		c0.03,8.57,3.45,12.12,11.85,12.2c11.15,0.1,22.31,0.1,33.46-0.01c7.42-0.07,14.4-1.97,20.65-6.08
		c8.14-5.35,11.34-13.02,8.45-22.41c-4.3-13.99-11.59-26.63-19.05-39.12c-2-3.35-4.98-3.8-6.96-0.41
		c-6.43,10.97-13.94,21.43-18.62,33.27c-5.13,13,1.08,25.69,12.71,28.04c0.23-0.31,0.41-0.58,0.59-0.83c1-1.79-0.39-2.72-2.06-3.88
		c-8.14-5.65-10.87-14.73-6.28-23.72c5.02-9.83,10.9-19.21,16.98-29.78c7.54,13.22,14.91,25.43,18.63,39.32
		c2.15,8.01-2.61,14.71-12.27,18.51c-2.73,1.07-5.52,2.17-8.58,1.68l0,0c-13.09,2.29-26.27,0.83-39.4,0.84
		c-4.46,0-5.78-3.53-5.76-7.72c0.08-17.07,0.07-34.14,0-51.2c-0.01-3.23,1.07-5.67,3.56-7.69c12.72-10.33,25.42-20.67,38.07-31.08
		c3.45-2.84,6.71-3.27,10.41-0.44c13.91,10.65,27.88,21.22,41.85,31.79c2.38,1.8,3.36,4.03,3.34,7.03c-0.08,17.52-0.1,35.05,0,52.57
		c0.03,4.62-2.28,6.68-6.55,6.92c-2.95,0.16-5.93-0.12-8.87,0.13c-2.26,0.19-6.12-1.35-6.29,1.97c-0.19,3.66,3.74,2.1,5.94,2.3
		c2.71,0.25,5.46,0.1,8.19,0.05c8.8-0.15,12.34-3.61,12.38-12.54c0.09-16.84-0.08-33.68,0.09-50.52
		C807.01,74.2,805.27,70.46,801.34,67.49z"/>
	<path fill="#28928B" d="M941.84,121.69c-4.1,0-8.2-0.19-12.28,0.05c-4.12,0.24-6.66-0.06-6.61-5.54c0.05-5.19,1.54-6.73,6.61-6.4
		c6.57,0.42,13.2-0.08,19.78,0.16c4.55,0.17,6.48-1.27,6.59-6.15c0.33-14.97-3.4-19.75-18.77-21.59c-4.24-0.51-3.21-3.04-3.18-5.24
		c0.04-2.42-1.21-5.32,3.24-6.07c17.16-2.9,31.52,7.53,32.21,24.75c0.79,19.65,2.17,27.63-24.18,26.03
		C944.12,121.63,942.98,121.69,941.84,121.69z"/>
	<path fill="#28928B" d="M883.94,99.98c0,7.72,0.39,15.46-0.08,23.16c-1.01,16.67-15.8,24.86-31.53,23.58
		c-3.87-0.32-5.61-3.73-6.77-6.87c-0.93-2.53-0.53-5.07,3.42-4.62c1.8,0.21,3.64,0.19,5.45,0.07c9.92-0.67,15.55-6.06,15.81-16.03
		c0.36-13.62,0.52-27.27,0.05-40.88c-0.21-6.19,2.71-6.31,7.34-6.4c4.68-0.1,7.15,0.63,6.77,6.21c-0.5,7.24-0.12,14.53-0.12,21.8
		C884.15,99.98,884.05,99.98,883.94,99.98z"/>
	<path fill="#27928B" d="M898.83,84.52c0-11.35,0.29-22.72-0.13-34.06c-0.2-5.36,2.25-6.02,6.48-5.62c3.53,0.33,7.65-1.5,7.53,5.2
		c-0.37,21.57-0.3,43.15-0.03,64.72c0.07,5.55-3.4,7.88-7.28,9.32c-3.37,1.24-6.96,1.19-6.72-4.82
		C899.17,107.7,898.83,96.1,898.83,84.52z"/>
	<path fill="#27928B" d="M954.87,211.57c0-11.35,0.29-22.72-0.13-34.06c-0.2-5.41,2.33-5.96,6.52-5.59c3.55,0.32,7.62-1.43,7.5,5.24
		c-0.38,21.57-0.3,43.15-0.03,64.72c0.07,5.55-3.42,7.87-7.31,9.29c-3.38,1.23-6.93,1.1-6.68-4.86
		C955.21,234.75,954.87,223.15,954.87,211.57z"/>
</g>
<g>
	<path fill="#27928B" d="M160.47,234.48c-8.36,2.37-14.04-0.4-18.46-7.14c-2.77-4.22-6.62-7.72-9.68-11.77
		c-1.79-2.36-2.6-1.64-4.61-0.1c-5.27,4.05-6.5,9.29-5.56,15.35c0.81,5.21-2.77,4.06-5.65,4.25c-3.05,0.21-4.99,0.15-4.91-4.1
		c0.3-15.11,0.2-30.22,0.05-45.33c-0.03-3.13,0.6-4.34,4.02-4.19c7.69,0.35,6.36-0.69,6.44,6.54c0.07,6.22,0.02,12.45,0.02,19.02
		c1.99-0.49,2.79-1.95,3.82-3c5.49-5.6,11.51-10.82,16.22-17.03c4.52-5.95,10.05-5.89,16.26-5.23c0.57,1.46-0.82,1.99-1.5,2.73
		c-5.71,6.2-11.39,12.43-17.3,18.43c-2.02,2.06-1.83,3.33-0.1,5.4c6.23,7.48,12.27,15.11,18.37,22.7
		C158.77,232.1,159.57,233.26,160.47,234.48z"/>
	<path fill="#27928B" d="M98.78,201.13c-0.36,5.57,0.74,12.29-0.97,18.88c-1.95,7.51-6.54,12.5-14.03,14.65
		c-5.57,1.6-11.24,1.65-16.8,0.05c-8.59-2.47-13.43-8.45-14.57-17.16c-1.46-11.13-0.38-22.36-0.67-33.54
		c-0.05-1.93,0.83-2.58,2.63-2.49c1.3,0.07,2.63,0.15,3.92-0.02c3.03-0.39,4,0.76,3.92,3.85c-0.21,7.84-0.12,15.7-0.04,23.55
		c0.03,2.46,0.21,4.94,0.66,7.35c1.37,7.3,5.9,10.57,13.79,10.2c6.69-0.32,11.19-4.26,11.54-11.24c0.48-9.43,0.23-18.89,0.44-28.33
		c0.04-1.73-1.16-4.42,1.07-5.03c2.56-0.7,5.49-0.4,8.2-0.06c1.42,0.18,0.88,1.93,0.89,3C98.81,189.87,98.78,194.96,98.78,201.13z"
		/>
	<path fill="#27928B" d="M22.67,180.96c5.46-0.22,10.69,0.76,15.59,3.27c4.37,2.24,0.36,4.66,0.05,6.92
		c-0.34,2.5-1.93,2.22-3.83,1.24c-4.35-2.23-9.02-3.13-13.93-2.84c-1.93,0.11-3.76,0.51-5.47,1.33c-2.27,1.08-3.65,2.88-3.69,5.47
		c-0.04,2.38,1.6,3.64,3.41,4.66c3.34,1.88,7.16,2.32,10.76,3.41c2.91,0.88,5.89,1.65,8.68,2.82c5.11,2.15,8.15,6.04,8.42,11.69
		c0.27,5.68-1.94,10.29-6.89,13.21c-7.6,4.47-15.79,4.42-24.1,2.53c-3.54-0.81-7.12-1.75-10.05-4.02c-3.89-3.01,0.33-5.37,1.05-7.86
		c0.85-2.93,2.55-0.4,3.63,0.17c6.36,3.34,12.95,5.16,20.14,3.4c2.98-0.73,5.59-2.1,5.84-5.57c0.24-3.41-2.36-4.92-5-5.8
		c-5.23-1.73-10.67-2.86-15.86-4.7c-7.46-2.63-10.77-7.41-10.5-14.27c0.32-8.12,7.04-14.12,16.93-15.06
		C19.46,180.84,21.07,180.96,22.67,180.96z"/>
	<path fill="#1F928B" d="M278.99,80.5c0.07-5-1.58-8.66-5.47-11.6c-14.01-10.59-27.98-21.23-41.97-31.84
		c-4.78-3.62-9.49-3.51-14.15,0.3c-12.9,10.55-25.81,21.09-38.72,31.62c-3.32,2.7-5.16,5.95-5.12,10.45
		c0.14,17.34-0.02,34.68,0.09,52.02c0.05,7.51,3.75,11.2,11.22,11.32c9.01,0.15,18.02-0.04,27.03,0.07
		c7.01,0.08,13.93-0.16,20.6-2.73c14.25-5.48,19.07-16.02,13.42-30.15c-4.52-11.29-10.12-22.07-16.42-32.48
		c-3.39-5.6-5.75-5.64-9.02-0.13c-5.17,8.7-10.23,17.47-15.26,26.25c-4.31,7.54-4.68,15.52-1.44,23.4
		c2.24,5.43,5.99,9.59,12.83,8.68c0.32-1.71-0.2-2.83-1.73-3.93c-8.19-5.91-11.28-13.9-7.18-22.54
		c4.86-10.22,11.03-19.82,17.07-30.46c6.89,10.79,12.11,21.12,16.47,31.88c5.39,13.29,1.46,21.43-12.18,25.88
		c-2.18,0.71-4.33,1.14-6.6,0.94l0,0c-12.96,2.14-25.99,0.87-38.99,0.72c-4.11-0.05-5.36-3.47-5.36-7.26
		c0.02-17.12,0.01-34.23,0.02-51.35c0-2.84,0.94-5.18,3.26-7.05c12.79-10.33,25.53-20.71,38.23-31.14c3.26-2.68,6.33-2.85,9.72-0.27
		c13.79,10.51,27.6,20.99,41.45,31.41c2.58,1.94,3.68,4.35,3.67,7.52c-0.04,16.89-0.07,33.78,0.01,50.67
		c0.03,5.43-2.61,7.8-7.84,7.78c-3.83-0.01-7.66,0-11.49,0.08c-1.46,0.03-2.74,0.69-2.54,2.36c0.15,1.2,1.22,1.83,2.48,1.83
		c3.83,0.03,7.66,0.1,11.49,0.05c8.77-0.11,12.26-3.55,12.29-12.29C278.95,113.83,278.77,97.17,278.99,80.5z"/>
	<path fill="#27918B" d="M46.87,112.54c-0.49-12.19-9.89-20.9-23.38-21.39c-6.61-0.24-13.25-0.02-19.87-0.17
		c-2.2-0.05-2.82,0.69-2.78,2.83c0.12,6.87,0.04,13.75,0.04,20.63c0,6.88-0.01,13.75,0.01,20.63c0,1.31-0.47,2.9,1.88,2.85
		c7.64-0.15,15.34,0.38,22.9-0.42C39.68,136.03,47.43,126.5,46.87,112.54z M26.39,129.39c-4.76,1.21-9.63,0.64-14.45,0.81
		c-1.93,0.07-1.95-1.1-1.94-2.47c0.02-4.46,0.01-8.91,0.01-13.37c0-4.33-0.01-8.66,0-12.99c0-1.25-0.28-2.68,1.77-2.59
		c5.07,0.22,10.19-0.6,15.19,0.86c6.88,2.02,10.89,7.72,10.75,15.27C37.58,122.06,33.21,127.65,26.39,129.39z"/>
	<path fill="#27918B" d="M142.98,124.64c-0.85-1.21-1.61-1.94,0.34-3.18c6.75-4.29,9.2-10.84,7.3-18.39
		c-1.59-6.33-7.85-11.36-15.29-11.75c-6.73-0.35-13.49-0.1-20.22-0.36c-2.72-0.11-3.4,0.79-3.37,3.42
		c0.13,12.47,0.06,24.94,0.06,37.41c0,6.5,0,6.4,6.62,6.16c2.09-0.07,2.6-0.84,2.53-2.73c-0.11-2.79,0.07-5.6-0.06-8.4
		c-0.09-2.02,0.74-2.39,2.64-2.64c6.23-0.8,11.13,0.53,13.91,6.79c0.86,1.94,2.46,3.54,3.64,5.35c0.68,1.03,1.43,1.64,2.77,1.59
		c2.5-0.09,5.01-0.03,8.37-0.03C148.78,132.96,145.9,128.79,142.98,124.64z M133.72,116.44c-3.4,0.34-6.85,0.11-10.26,0.29
		c-2.03,0.11-2.64-0.67-2.58-2.63c0.12-3.93,0.22-7.87-0.03-11.79c-0.18-2.83,0.67-3.99,3.56-3.57c1.24,0.18,2.53,0.03,3.8,0.03
		c0-0.02,0-0.04,0-0.05c1.9,0.08,3.82,0.01,5.7,0.28c5.18,0.75,7.99,4.05,7.9,9.01C141.71,112.66,138.75,115.93,133.72,116.44z"/>
	<path fill="#27918B" d="M270.19,227.07c-1.74-2.5-3.44-5.04-5.26-7.48c-1.08-1.45-1.12-2.14,0.64-3.28
		c7.69-4.98,10.5-12.37,8.34-20.99c-1.81-7.23-8.94-12.98-17.44-13.43c-7.68-0.4-15.4-0.12-23.09-0.42
		c-3.08-0.12-3.9,0.85-3.87,3.89c0.15,14.23,0.07,28.47,0.07,42.7c0,7.43,0,7.31,7.54,7.05c2.37-0.08,2.99-0.92,2.9-3.1
		c-0.13-3.19,0.08-6.39-0.07-9.58c-0.1-2.29,0.81-2.75,3-3.03c7.11-0.91,12.71,0.58,15.89,7.74c0.98,2.21,2.8,4.05,4.16,6.11
		c0.77,1.17,1.61,1.89,3.15,1.83c2.86-0.11,5.73-0.03,9.6-0.03C273.49,231.8,271.84,229.43,270.19,227.07z M258.55,209.41
		c-5.5,2.44-11.41,1.24-17.16,1.35c-1.44,0.03-1.37-1.22-1.37-2.22c-0.02-2.75-0.01-5.5-0.01-8.25c0-10.07,0-10.06,10.28-9.89
		c2.76,0.05,5.53,0.06,8.08,1.28c3.57,1.72,5.44,4.51,5.52,8.59C263.97,204.5,262.36,207.72,258.55,209.41z"/>
	<path fill="#27928B" d="M100.98,134.06c-5.99-13.33-12.16-26.59-17.94-40.01c-1.38-3.19-3.42-3.06-6-3.06
		c-2.58,0-4.62-0.12-5.99,3.07c-5.76,13.43-11.93,26.68-17.9,40.02c-0.5,1.12-1.39,2.18-1.08,3.56c8.63,0.89,8.63,0.89,11.92-6.81
		c0.1-0.23,0.27-0.45,0.32-0.69c0.5-2.4,1.91-3.13,4.36-3.04c5.34,0.19,10.71,0.25,16.04-0.01c2.91-0.14,4.18,0.9,5.25,3.55
		c3.17,7.86,3.31,7.81,11.8,7.13c0.11-0.01,0.21-0.1,0.34-0.17C102.36,136.24,101.48,135.18,100.98,134.06z M83.14,119.85
		c-4.07-0.05-8.14-0.03-12.21-0.01c-1.58,0.01-2.02-0.48-1.33-2.04c2.4-5.45,4.7-10.94,7.38-17.21c2.69,6.25,5.02,11.73,7.42,17.19
		C85.03,119.21,84.85,119.87,83.14,119.85z"/>
	<path fill="#27928B" d="M221.95,231.25c-7.2-15.53-14.21-31.15-21.1-46.82c-1.11-2.51-2.65-3.28-5.01-2.86
		c-2.71,0.48-6.09-1.67-7.91,2.44c-7.09,16.06-14.32,32.05-21.56,48.05c-0.92,2.04-1.14,2.99,1.75,3.06
		c7.71,0.18,7.71,0.31,10.7-6.69c0.29-0.67,0.68-1.31,0.84-2c0.67-2.82,2.21-3.9,5.26-3.71c4.78,0.31,9.66,0.59,14.37-0.04
		c6.3-0.84,9.75,1.4,11.17,7.49c0.83,3.55,2.64,6.19,6.33,4.89c1.26,0,1.85-0.06,2.42,0.01
		C222.51,235.48,223.63,234.88,221.95,231.25z M201.13,214.45c-5.2-0.09-10.41-0.03-16.3-0.03c3.17-7.43,6.1-14.29,9.38-21.96
		c3.07,7.1,5.7,13.22,8.36,19.32C203.25,213.35,203.59,214.49,201.13,214.45z"/>
</g>
</svg>
