<?xml version="1.0" standalone="no"?>
<!DOCTYPE svg PUBLIC "-//W3C//DTD SVG 20010904//EN"
 "http://www.w3.org/TR/2001/REC-SVG-20010904/DTD/svg10.dtd">
<svg version="1.0" xmlns="http://www.w3.org/2000/svg"
 width="274.000000pt" height="274.000000pt" viewBox="0 0 274.000000 274.000000"
 preserveAspectRatio="xMidYMid meet">
<metadata>
Created by potrace 1.14, written by Peter Selinger 2001-2017
</metadata>
<g transform="translate(0.000000,274.000000) scale(0.100000,-0.100000)"
fill="#000000" stroke="none">
<path d="M1277 2729 c-21 -5 -48 -14 -60 -21 -19 -9 -312 -242 -327 -259 -3
-3 -175 -144 -382 -313 -208 -169 -391 -323 -407 -343 -16 -19 -34 -55 -40
-79 -7 -29 -11 -282 -11 -781 l0 -738 24 -51 c13 -28 41 -65 62 -82 76 -63 74
-63 654 -59 289 2 539 7 555 11 222 53 341 112 451 223 57 58 109 148 122 215
9 42 8 182 -1 228 -27 146 -200 516 -409 880 -100 173 -134 212 -182 203 -37
-7 -65 -44 -156 -203 -46 -80 -141 -245 -212 -368 -71 -122 -140 -246 -152
-275 -78 -174 -61 -442 36 -587 42 -61 92 -104 157 -136 89 -42 141 -30 141
32 0 27 -11 36 -87 74 -65 33 -112 84 -143 154 -53 125 -45 322 18 446 30 61
349 612 389 673 l25 39 59 -103 c32 -56 59 -103 59 -105 0 -1 16 -31 36 -66
115 -201 243 -478 290 -626 30 -96 29 -224 -2 -292 -67 -145 -281 -271 -504
-295 -94 -11 -1003 -8 -1030 3 -34 13 -69 53 -78 88 -5 16 -8 349 -7 739 l1
710 23 40 c13 22 49 61 80 86 247 200 393 319 496 403 66 54 138 113 160 131
22 18 103 85 180 148 77 62 155 122 173 131 32 16 87 16 116 -1 10 -6 129 -96
596 -450 74 -57 230 -175 346 -263 156 -118 216 -169 228 -195 15 -31 17 -105
17 -750 0 -795 3 -762 -67 -806 -32 -20 -48 -21 -241 -21 -203 0 -206 0 -229
-24 -29 -28 -30 -34 -3 -68 l21 -27 214 1 c249 2 281 9 347 75 77 77 75 46 75
870 0 786 0 781 -52 847 -19 25 -122 104 -601 467 -93 71 -260 197 -370 281
-110 83 -216 160 -235 170 -43 22 -113 30 -163 19z"/>
</g>
</svg>
